<svg id="Layer_1" data-name="Layer 1" xmlns="http://www.w3.org/2000/svg" viewBox="0 0 192.47 211.52"><defs><style>.cls-1{opacity:0.1;}.cls-2{fill:#007047;}.cls-3{fill:#017047;}.cls-4{fill:#0b764f;}</style></defs><g class="cls-1"><path class="cls-2" d="M53.69,251.6c-.42,1-1.4,1.32-2.62,1.3-3.86-.1-7.72,0-11.58,0v-.12c-3.75.2-7.49.33-11.24.62a3,3,0,0,1-3.35-1.79c-.66-1.49.93-1.87,1.76-2.5,3.36-2.54,6.86-4.92,10.17-7.53a2.72,2.72,0,0,1,3.65-.14,84.77,84.77,0,0,1,11.9,8.36C53,250.26,54.09,250.63,53.69,251.6Z" transform="translate(0.47 -188)"/><path class="cls-2" d="M44.18,316.11c-3.35-1.54-6.66-1.07-9.91.31A1.9,1.9,0,0,0,33,318.64c.17,1.17,1,1,1.93,1,1.71,0,3.41.17,5.12.26a8.5,8.5,0,0,0,4.09-.53c.79-.36,1.61-.81,1.72-1.68C46,316.69,44.92,316.45,44.18,316.11ZM51,326.82c-7.64-1.19-15.35.4-23-.5-1.68-.2-1.1,1.32-.39,2,1.54,1.55,3.22,3,4.82,4.49,3.22,3,7,3.35,11,1.76,3.65-1.47,6-4.35,8-7.52C51.13,326.91,51.06,326.83,51,326.82Zm0,0c-7.64-1.19-15.35.4-23-.5-1.68-.2-1.1,1.32-.39,2,1.54,1.55,3.22,3,4.82,4.49,3.22,3,7,3.35,11,1.76,3.65-1.47,6-4.35,8-7.52C51.13,326.91,51.06,326.83,51,326.82Zm-6.79-10.71c-3.35-1.54-6.66-1.07-9.91.31A1.9,1.9,0,0,0,33,318.64c.17,1.17,1,1,1.93,1,1.71,0,3.41.17,5.12.26a8.5,8.5,0,0,0,4.09-.53c.79-.36,1.61-.81,1.72-1.68C46,316.69,44.92,316.45,44.18,316.11Zm0,0c-3.35-1.54-6.66-1.07-9.91.31A1.9,1.9,0,0,0,33,318.64c.17,1.17,1,1,1.93,1,1.71,0,3.41.17,5.12.26a8.5,8.5,0,0,0,4.09-.53c.79-.36,1.61-.81,1.72-1.68C46,316.69,44.92,316.45,44.18,316.11ZM51,326.82c-7.64-1.19-15.35.4-23-.5-1.68-.2-1.1,1.32-.39,2,1.54,1.55,3.22,3,4.82,4.49,3.22,3,7,3.35,11,1.76,3.65-1.47,6-4.35,8-7.52C51.13,326.91,51.06,326.83,51,326.82Zm0,0c-7.64-1.19-15.35.4-23-.5-1.68-.2-1.1,1.32-.39,2,1.54,1.55,3.22,3,4.82,4.49,3.22,3,7,3.35,11,1.76,3.65-1.47,6-4.35,8-7.52C51.13,326.91,51.06,326.83,51,326.82Zm-6.79-10.71c-3.35-1.54-6.66-1.07-9.91.31A1.9,1.9,0,0,0,33,318.64c.17,1.17,1,1,1.93,1,1.71,0,3.41.17,5.12.26a8.5,8.5,0,0,0,4.09-.53c.79-.36,1.61-.81,1.72-1.68C46,316.69,44.92,316.45,44.18,316.11ZM3.5,334c-1.29-3-2.69-6-4-8.95v37.85C7,354,8,344.47,3.5,334Zm40.68-17.88c-3.35-1.54-6.66-1.07-9.91.31A1.9,1.9,0,0,0,33,318.64c.17,1.17,1,1,1.93,1,1.71,0,3.41.17,5.12.26a8.5,8.5,0,0,0,4.09-.53c.79-.36,1.61-.81,1.72-1.68C46,316.69,44.92,316.45,44.18,316.11ZM51,326.82c-7.64-1.19-15.35.4-23-.5-1.68-.2-1.1,1.32-.39,2,1.54,1.55,3.22,3,4.82,4.49,3.22,3,7,3.35,11,1.76,3.65-1.47,6-4.35,8-7.52C51.13,326.91,51.06,326.83,51,326.82Zm0,0c-7.64-1.19-15.35.4-23-.5-1.68-.2-1.1,1.32-.39,2,1.54,1.55,3.22,3,4.82,4.49,3.22,3,7,3.35,11,1.76,3.65-1.47,6-4.35,8-7.52C51.13,326.91,51.06,326.83,51,326.82Zm-6.79-10.71c-3.35-1.54-6.66-1.07-9.91.31A1.9,1.9,0,0,0,33,318.64c.17,1.17,1,1,1.93,1,1.71,0,3.41.17,5.12.26a8.5,8.5,0,0,0,4.09-.53c.79-.36,1.61-.81,1.72-1.68C46,316.69,44.92,316.45,44.18,316.11Zm0,0c-3.35-1.54-6.66-1.07-9.91.31A1.9,1.9,0,0,0,33,318.64c.17,1.17,1,1,1.93,1,1.71,0,3.41.17,5.12.26a8.5,8.5,0,0,0,4.09-.53c.79-.36,1.61-.81,1.72-1.68C46,316.69,44.92,316.45,44.18,316.11ZM51,326.82c-7.64-1.19-15.35.4-23-.5-1.68-.2-1.1,1.32-.39,2,1.54,1.55,3.22,3,4.82,4.49,3.22,3,7,3.35,11,1.76,3.65-1.47,6-4.35,8-7.52C51.13,326.91,51.06,326.83,51,326.82Zm0,0c-7.64-1.19-15.35.4-23-.5-1.68-.2-1.1,1.32-.39,2,1.54,1.55,3.22,3,4.82,4.49,3.22,3,7,3.35,11,1.76,3.65-1.47,6-4.35,8-7.52C51.13,326.91,51.06,326.83,51,326.82Zm-16.06-7.15c1.71,0,3.41.17,5.12.26a8.5,8.5,0,0,0,4.09-.53c.79-.36,1.61-.81,1.72-1.68.12-1-.92-1.27-1.66-1.61-3.35-1.54-6.66-1.07-9.91.31A1.9,1.9,0,0,0,33,318.64C33.15,319.81,34,319.66,34.91,319.67Zm154.63,22a23.1,23.1,0,0,1-15.41-.84c-4-1.54-7.8-3.39-11.66-5.17-4.15-1.92-8.3-4.29-12.91-4.42s-6.45-2.55-7.66-6.28c-.69-2.13-.25-2.91,2.06-3.21,5.82-.73,11,1,16,3.5,4.55,2.29,8.89,5,13.71,6.75a18.37,18.37,0,0,0,16.61-1.38,2.88,2.88,0,0,0,1.68-3.24c-.58-4.17-.78-8.38-1.43-12.54-8.72-56-41.64-94.75-95.27-115.85C63.37,186.47,31,184.66-.47,193.48v43.89c.79.39,1.58.8,2.36,1.21q7.62,4,15,8.36c1.56.93,2.31.78,3.29-.62,3.27-4.72,4.49-10.15,6.07-15.46.35-1.22-.74-1.61-1.41-2.19-3.79-3.32-7.62-6.61-11.44-9.91-.54-.47-1.32-.87-1.07-1.73s1.23-.58,1.9-.63c4.38-.25,8.77-.61,13.16-.65,2.72,0,4.23-1,5.26-3.42,1.92-4.63,4.17-9.14,6.47-14.1a28.11,28.11,0,0,1,5.22,10.21c1.47,4.85,3.91,7.78,9.83,7.09,3.14-.37,6.41.22,9.62.42.8.05,1.92-.31,2.28.66s-.5,1.49-1.13,2c-3.73,3.4-7.41,6.84-11.23,10.15a2.62,2.62,0,0,0-.82,3.64c2.25,4.86,4.31,9.82,6.48,14.84,10.6-5.71,20.26-13.06,33.14-13.8-.8,4.43-2.91,8-4.17,11.93-.75,2.29-2.54,5.28-.84,6.94,1.22,1.2,4.24-.91,6.4-1.69,5.18-1.92,10.27-4.12,16.22-4-.46,2.26-1.85,3.94-2.94,5.74-4,6.54-8.16,13-9.59,20.66-.75,4-.78,4-4.8,2.54-11.09-4.08-22.14-8.27-34-10A129.22,129.22,0,0,0,3.54,270c-1.35.39-2.68.81-4,1.25v14.88a40.15,40.15,0,0,1,5.37-6.84,9.38,9.38,0,0,1,4.85-3.18,9.91,9.91,0,0,1-2.37,4c-7.12,9.3-9,19.49-6.16,30.64,2.15,8.32,5.84,16.09,9.65,23.75,4.92,9.87,3.6,18.79-2.74,27.53a97.73,97.73,0,0,0-8.6,13.15V395.6c.42.7.9,1.4,1.42,2.1s.93,1.22,1.41,1.82H13.08c-9.39-12.24-9.15-17.82.49-30.81,2.92-3.93,5.82-7.89,7.54-12.48,1.67-4.43,3.68-5.33,8.39-3.93a35.68,35.68,0,0,0,8.07,1.81c4.48.33,8.36-1.65,12.56-2.28,3.9-.6,5.79.4,7.19,3.81a19.75,19.75,0,0,0,2.14,4.1c2.83,3.86,5.85,7.59,8.69,11.45,3.41,4.63,5.81,9.55,4.75,15.49-.87,4.89-3.39,9-6.3,12.84H77.23c.31-.39.64-.77,1-1.16,5.64-6.84,6.2-14.15,2.71-22a64.13,64.13,0,0,0-9.53-14.56c-7.27-8.73-7.5-17.94-2.86-27.69,2.36-4.95,5-9.78,7.09-14.81,6.83-16.17,4.77-31.09-7.25-44.5-.06-.07.09-.33.19-.63a32.36,32.36,0,0,1,9.65,8.85C86.32,294,86.51,305.71,82.25,318c-2.57,7.38-5.66,14.59-7.9,22.1a20.72,20.72,0,0,0,3.38,19.29c2.55,3.43,5.33,6.69,7.91,10.1,8,10.57,8.26,19.2.6,30H97.32c.18-.23.34-.45.51-.68a19,19,0,0,0,3.25-7.3c1.73-7.53-.83-14.23-4.69-20.52-3.36-5.47-7.1-10.75-10.82-16a18.11,18.11,0,0,1-2.9-14.69A52.33,52.33,0,0,1,87.9,326.8c6.4-12.38,6-24.91,1-37.58-1.63-4.13-4.14-7.82-7.1-11.91a12.6,12.6,0,0,1,4.65,2.81c8.71,8.48,13.06,18.65,12.31,30.59a63.59,63.59,0,0,1-5.2,20.56c-5,11.78-3.08,22.18,5.25,31.86a94,94,0,0,1,7,9.59c5.68,8.55,5.76,17.26,0,25.76-.24.35-.47.7-.71,1h10.51a24,24,0,0,0,2.68-6.17c1.94-7.88-.12-15.08-4.24-21.82-3.47-5.66-7.21-11.18-11-16.66a19.84,19.84,0,0,1-3-16.79c.91-3.58,2-7.1,3.13-10.64,3.54-11.44,4.36-22.78-.94-34-1.36-2.85-2.64-5.74-4.3-9.36,4,2.47,7.17,4.7,8.85,8.27,6.32,13.36,7.77,27,2.19,40.94a23.15,23.15,0,0,0,1,20.23,112.85,112.85,0,0,0,7.74,12c4.1,5.94,7.94,12,8.36,19.38a2,2,0,0,0,.86,1.55c3.49,2.73,6.65,5.84,10.47,8.16a17.46,17.46,0,0,0,6.54,2.39c1.57.22,3.71-1.08,4.57.47a3.35,3.35,0,0,1,.33,2h14.17c-3.54-2.22-7.12-4.36-11.48-4.89-.5-.06-1.23,0-1.16-.7.24-2.25.28-4.71,1.62-6.49.92-1.23,3-.29,4.54,0,5,1.11,9.14,4,13.58,6.21,7.75,3.93,10,2.95,12-5.27a.75.75,0,0,1,.09-.29c.58-1.18,0-1.68-1.16-1.9-4.6-.87-8.57-3.14-12.57-5.33-4.66-2.55-9.22-5.25-14.54-6.39-1-.2-1.47-.59-1.42-1.63.08-1.43,0-2.88,0-4.32.09-1.74.92-2.51,2.91-2.18a33.8,33.8,0,0,1,10.78,3.84c4.82,2.66,9.63,5.32,15,6.84,3.77,1.06,5.4.2,6-3.6.3-1.93.38-3.9.85-5.78.32-1.31-.27-1.37-1.25-1.39-5.76-.16-10.74-2.51-15.62-5.14s-9.42-6.2-15-6.81c-5.07-.57-6.6-3-6.78-7.17a.82.82,0,0,0-.07-.31c-.51-1.5.15-2.05,1.68-2.09a25.93,25.93,0,0,1,9.44,1.56c4.54,1.62,8.69,4,13.07,5.93s8.8,3.16,13.67,2.77c2.56-.2,4.24-1.11,4.26-3.85s0-5.34.17-8C191.92,341.24,191.1,341.23,189.54,341.7Zm-176.89-48a30.63,30.63,0,0,1,3.79-.62c4,.29,7.45,1.07,10,4,.44.49.87,1.06.54,1.63s-1.12.3-1.71.18c-2-.43-3.92-.93-5.9-1.27a6.29,6.29,0,0,0-4.85,1c-.8.57-1.34,1.83-2.64,1.21-1.47-.69-.89-2.12-1-3.28A2.4,2.4,0,0,1,12.65,293.69Zm55.84-8.13c.65,2,.18,2.71-2.08,2.23-5.59-1.21-11-.37-16.47,1.11-4,1.09-6,3.75-6.84,7.36-.92,3.78-.45,7.55.33,11.3a2.93,2.93,0,0,0,1.85,2.35c1.26.44,2.08-.58,2.49-1.44,1.53-3.15,3.89-3.51,7.09-2.57a13.55,13.55,0,0,0,9.45-.31c1.9-.82,2.86.08,3.59,1.43a8.67,8.67,0,0,1,1,5.7c-1.89,10-5.43,19.31-13,26.9-9.81,9.8-23.32,8.51-32,1.26-9.24-7.67-14-17.4-14.55-29.08a12.48,12.48,0,0,1,.36-3.95c.68-2.44,2.67-3.46,4.88-2.34,2.59,1.32,5.13,1.15,7.79.63s5.33-.93,8.11.45c2,1,3-1.07,3.56-2.51,3.38-8.6-1.77-16.21-11.32-16.73-2.45-.14-4.92,0-7.38,0-3.74.06-4.45-1-2.82-4.18,3.78-7.29,10.39-10.58,18.35-12a43.12,43.12,0,0,1,9.06-.59c7.16-.09,13.84.87,20,4.29A18.23,18.23,0,0,1,68.49,285.56ZM68,298.74c-.68,1.58-1.87.74-3,.38-3.87-1.28-7.76-2.58-11.81-.64-.67.32-1.21.49-1.5-.32A2,2,0,0,1,53,295.38c2.81-.93,5.64-1.91,8.68-1.9,2.07,0,4.08.24,5.73,1.61A2.85,2.85,0,0,1,68,298.74Zm68.63,10.86a4.38,4.38,0,0,1-4.42-2.12c-6.7-9.43-14.74-17.61-25.16-23.39-2.94-1.62-.78-2.71.53-3.44,3.25-1.83,7-1.55,9.89-1.91,8.79.07,16,2.81,23,6.35,2.2,1.11,2.9.62,3.43-1.44,1.57-6.07,2.91-12.21,7.36-17.17a29.74,29.74,0,0,1,7.93-6.66c1-.55,2.11-1.63,3.49-.64s1.08,2.15.85,3.37c-2.1,11.3,1.12,21.54,6.75,31.3,2.8,4.85,6,9.43,9.25,14,1.89,2.74,3.65,5.56,5.65,8.22,1.11,1.49.51,2.08-.88,2.72a17.24,17.24,0,0,1-12.2.81,56,56,0,0,1-12-5.15C152.81,310.41,144.92,309.07,136.62,309.6ZM28,326.32c-1.68-.2-1.1,1.32-.39,2,1.54,1.55,3.22,3,4.82,4.49,3.22,3,7,3.35,11,1.76,3.65-1.47,6-4.35,8-7.52-.26-.18-.33-.26-.42-.27C43.33,325.63,35.62,327.22,28,326.32Zm6.31-9.9A1.9,1.9,0,0,0,33,318.64c.17,1.17,1,1,1.93,1,1.71,0,3.41.17,5.12.26a8.5,8.5,0,0,0,4.09-.53c.79-.36,1.61-.81,1.72-1.68.12-1-.92-1.27-1.66-1.61C40.83,314.57,37.52,315,34.27,316.42Zm9.91-.31c-3.35-1.54-6.66-1.07-9.91.31A1.9,1.9,0,0,0,33,318.64c.17,1.17,1,1,1.93,1,1.71,0,3.41.17,5.12.26a8.5,8.5,0,0,0,4.09-.53c.79-.36,1.61-.81,1.72-1.68C46,316.69,44.92,316.45,44.18,316.11ZM51,326.82c-7.64-1.19-15.35.4-23-.5-1.68-.2-1.1,1.32-.39,2,1.54,1.55,3.22,3,4.82,4.49,3.22,3,7,3.35,11,1.76,3.65-1.47,6-4.35,8-7.52C51.13,326.91,51.06,326.83,51,326.82Zm0,0c-7.64-1.19-15.35.4-23-.5-1.68-.2-1.1,1.32-.39,2,1.54,1.55,3.22,3,4.82,4.49,3.22,3,7,3.35,11,1.76,3.65-1.47,6-4.35,8-7.52C51.13,326.91,51.06,326.83,51,326.82Zm-6.79-10.71c-3.35-1.54-6.66-1.07-9.91.31A1.9,1.9,0,0,0,33,318.64c.17,1.17,1,1,1.93,1,1.71,0,3.41.17,5.12.26a8.5,8.5,0,0,0,4.09-.53c.79-.36,1.61-.81,1.72-1.68C46,316.69,44.92,316.45,44.18,316.11Zm0,0c-3.35-1.54-6.66-1.07-9.91.31A1.9,1.9,0,0,0,33,318.64c.17,1.17,1,1,1.93,1,1.71,0,3.41.17,5.12.26a8.5,8.5,0,0,0,4.09-.53c.79-.36,1.61-.81,1.72-1.68C46,316.69,44.92,316.45,44.18,316.11ZM51,326.82c-7.64-1.19-15.35.4-23-.5-1.68-.2-1.1,1.32-.39,2,1.54,1.55,3.22,3,4.82,4.49,3.22,3,7,3.35,11,1.76,3.65-1.47,6-4.35,8-7.52C51.13,326.91,51.06,326.83,51,326.82Zm0,0c-7.64-1.19-15.35.4-23-.5-1.68-.2-1.1,1.32-.39,2,1.54,1.55,3.22,3,4.82,4.49,3.22,3,7,3.35,11,1.76,3.65-1.47,6-4.35,8-7.52C51.13,326.91,51.06,326.83,51,326.82Zm-6.79-10.71c-3.35-1.54-6.66-1.07-9.91.31A1.9,1.9,0,0,0,33,318.64c.17,1.17,1,1,1.93,1,1.71,0,3.41.17,5.12.26a8.5,8.5,0,0,0,4.09-.53c.79-.36,1.61-.81,1.72-1.68C46,316.69,44.92,316.45,44.18,316.11Zm0,0c-3.35-1.54-6.66-1.07-9.91.31A1.9,1.9,0,0,0,33,318.64c.17,1.17,1,1,1.93,1,1.71,0,3.41.17,5.12.26a8.5,8.5,0,0,0,4.09-.53c.79-.36,1.61-.81,1.72-1.68C46,316.69,44.92,316.45,44.18,316.11ZM51,326.82c-7.64-1.19-15.35.4-23-.5-1.68-.2-1.1,1.32-.39,2,1.54,1.55,3.22,3,4.82,4.49,3.22,3,7,3.35,11,1.76,3.65-1.47,6-4.35,8-7.52C51.13,326.91,51.06,326.83,51,326.82Zm0,0c-7.64-1.19-15.35.4-23-.5-1.68-.2-1.1,1.32-.39,2,1.54,1.55,3.22,3,4.82,4.49,3.22,3,7,3.35,11,1.76,3.65-1.47,6-4.35,8-7.52C51.13,326.91,51.06,326.83,51,326.82Zm-6.79-10.71c-3.35-1.54-6.66-1.07-9.91.31A1.9,1.9,0,0,0,33,318.64c.17,1.17,1,1,1.93,1,1.71,0,3.41.17,5.12.26a8.5,8.5,0,0,0,4.09-.53c.79-.36,1.61-.81,1.72-1.68C46,316.69,44.92,316.45,44.18,316.11Zm0,0c-3.35-1.54-6.66-1.07-9.91.31A1.9,1.9,0,0,0,33,318.64c.17,1.17,1,1,1.93,1,1.71,0,3.41.17,5.12.26a8.5,8.5,0,0,0,4.09-.53c.79-.36,1.61-.81,1.72-1.68C46,316.69,44.92,316.45,44.18,316.11ZM51,326.82c-7.64-1.19-15.35.4-23-.5-1.68-.2-1.1,1.32-.39,2,1.54,1.55,3.22,3,4.82,4.49,3.22,3,7,3.35,11,1.76,3.65-1.47,6-4.35,8-7.52C51.13,326.91,51.06,326.83,51,326.82Zm0,0c-7.64-1.19-15.35.4-23-.5-1.68-.2-1.1,1.32-.39,2,1.54,1.55,3.22,3,4.82,4.49,3.22,3,7,3.35,11,1.76,3.65-1.47,6-4.35,8-7.52C51.13,326.91,51.06,326.83,51,326.82Zm-6.79-10.71c-3.35-1.54-6.66-1.07-9.91.31A1.9,1.9,0,0,0,33,318.64c.17,1.17,1,1,1.93,1,1.71,0,3.41.17,5.12.26a8.5,8.5,0,0,0,4.09-.53c.79-.36,1.61-.81,1.72-1.68C46,316.69,44.92,316.45,44.18,316.11Z" transform="translate(0.47 -188)"/><path class="cls-3" d="M53.69,251.6c-.42,1-1.4,1.32-2.62,1.3-3.86-.1-7.72,0-11.58,0v-.12c-3.75.2-7.49.33-11.24.62a3,3,0,0,1-3.35-1.79c-.66-1.49.93-1.87,1.76-2.5,3.36-2.54,6.86-4.92,10.17-7.53a2.72,2.72,0,0,1,3.65-.14,84.77,84.77,0,0,1,11.9,8.36C53,250.26,54.09,250.63,53.69,251.6Z" transform="translate(0.47 -188)"/><path class="cls-3" d="M51.39,327.09c-2,3.18-4.4,6-8,7.52-3.93,1.6-7.73,1.28-11-1.76-1.6-1.5-3.28-2.93-4.82-4.49-.71-.73-1.29-2.24.39-2.05,7.67.91,15.37-.67,23,.5A2,2,0,0,1,51.39,327.09Z" transform="translate(0.47 -188)"/><path class="cls-4" d="M45.84,317.72c-.11.87-.92,1.32-1.71,1.68a8.55,8.55,0,0,1-4.1.53c-1.71-.09-3.41-.24-5.12-.26-.9,0-1.76.13-1.93-1a1.92,1.92,0,0,1,1.29-2.22c3.26-1.38,6.56-1.85,9.91-.31C44.92,316.45,46,316.68,45.84,317.72Z" transform="translate(0.47 -188)"/></g></svg>